# Aspose.3D Wavefront OBJ Exporter
# Copyright 2004-2024 Aspose Pty Ltd.
# File created: 04/11/2024 15:09:31

mtllib material.lib
g screw_hole_1

#
# object screw_hole_1
#

v 0.478125 0.125 0.484375
v 0.478125 0.125 0.359375
v 0.478125 0.0625 0.484375
v 0.478125 0.0625 0.359375
v 0.4375 0.125 0.359375
v 0.4375 0.125 0.484375
v 0.4375 0.0625 0.359375
v 0.4375 0.0625 0.484375
v 0.4375 0.125 0.359375
v 0.478125 0.125 0.359375
v 0.4375 0.125 0.484375
v 0.478125 0.125 0.484375
v 0.4375 0.0625 0.484375
v 0.478125 0.0625 0.484375
v 0.4375 0.0625 0.359375
v 0.478125 0.0625 0.359375
v 0.4375 0.125 0.484375
v 0.478125 0.125 0.484375
v 0.4375 0.0625 0.484375
v 0.478125 0.0625 0.484375
v 0.478125 0.125 0.359375
v 0.4375 0.125 0.359375
v 0.478125 0.0625 0.359375
v 0.4375 0.0625 0.359375
# 24 vertices

vn 1 0 0
vn 1 0 0
vn 1 0 0
vn 1 0 0
vn -1 0 0
vn -1 0 0
vn -1 0 0
vn -1 0 0
vn 0 1 0
vn 0 1 0
vn 0 1 0
vn 0 1 0
vn 0 -1 0
vn 0 -1 0
vn 0 -1 0
vn 0 -1 0
vn 0 0 1
vn 0 0 1
vn 0 0 1
vn 0 0 1
vn 0 0 -1
vn 0 0 -1
vn 0 0 -1
vn 0 0 -1
# 24 vertex normals

vt 0 -1 0
vt 0.125 -1 0
vt 0 -0.9375 0
vt 0.125 -0.9375 0
vt 0 -1 0
vt 0.125 -1 0
vt 0 -0.9375 0
vt 0.125 -0.9375 0
vt 0 -1 0
vt 0.040625 -1 0
vt 0 -0.875 0
vt 0.040625 -0.875 0
vt 0 -1 0
vt 0.040625 -1 0
vt 0 -0.875 0
vt 0.040625 -0.875 0
vt 0 -1 0
vt 0.040625 -1 0
vt 0 -0.9375 0
vt 0.040625 -0.9375 0
vt 0 -1 0
vt 0.040625 -1 0
vt 0 -0.9375 0
vt 0.040625 -0.9375 0
# 24 texture coords

usemtl mat_55398642
s 1
f 1/1/1 3/3/3 2/2/2
f 3/3/3 4/4/4 2/2/2
f 5/5/5 7/7/7 6/6/6
f 7/7/7 8/8/8 6/6/6
f 9/9/9 11/11/11 10/10/10
f 11/11/11 12/12/12 10/10/10
f 13/13/13 15/15/15 14/14/14
f 15/15/15 16/16/16 14/14/14
f 17/17/17 19/19/19 18/18/18
f 19/19/19 20/20/20 18/18/18
f 21/21/21 23/23/23 22/22/22
f 23/23/23 24/24/24 22/22/22
#12 polygons

g breaker_body

#
# object breaker_body
#

v 0.478125 0.21875 0.515625
v 0.478125 0.21875 0.390625
v 0.478125 0.125 0.515625
v 0.478125 0.125 0.390625
v 0.4375 0.21875 0.390625
v 0.4375 0.21875 0.515625
v 0.4375 0.125 0.390625
v 0.4375 0.125 0.515625
v 0.4375 0.21875 0.390625
v 0.478125 0.21875 0.390625
v 0.4375 0.21875 0.515625
v 0.478125 0.21875 0.515625
v 0.4375 0.125 0.515625
v 0.478125 0.125 0.515625
v 0.4375 0.125 0.390625
v 0.478125 0.125 0.390625
v 0.4375 0.21875 0.515625
v 0.478125 0.21875 0.515625
v 0.4375 0.125 0.515625
v 0.478125 0.125 0.515625
v 0.478125 0.21875 0.390625
v 0.4375 0.21875 0.390625
v 0.478125 0.125 0.390625
v 0.4375 0.125 0.390625
# 24 vertices

vn 1 0 0
vn 1 0 0
vn 1 0 0
vn 1 0 0
vn -1 0 0
vn -1 0 0
vn -1 0 0
vn -1 0 0
vn 0 1 0
vn 0 1 0
vn 0 1 0
vn 0 1 0
vn 0 -1 0
vn 0 -1 0
vn 0 -1 0
vn 0 -1 0
vn 0 0 1
vn 0 0 1
vn 0 0 1
vn 0 0 1
vn 0 0 -1
vn 0 0 -1
vn 0 0 -1
vn 0 0 -1
# 24 vertex normals

vt 0 -1 0
vt 0.125 -1 0
vt 0 -0.90625 0
vt 0.125 -0.90625 0
vt 0 -1 0
vt 0.125 -1 0
vt 0 -0.90625 0
vt 0.125 -0.90625 0
vt 0 -1 0
vt 0.040625 -1 0
vt 0 -0.875 0
vt 0.040625 -0.875 0
vt 0 -1 0
vt 0.040625 -1 0
vt 0 -0.875 0
vt 0.040625 -0.875 0
vt 0 -1 0
vt 0.040625 -1 0
vt 0 -0.90625 0
vt 0.040625 -0.90625 0
vt 0 -1 0
vt 0.040625 -1 0
vt 0 -0.90625 0
vt 0.040625 -0.90625 0
# 24 texture coords

usemtl mat_12261783
s 2
f 25/25/25 27/27/27 26/26/26
f 27/27/27 28/28/28 26/26/26
f 29/29/29 31/31/31 30/30/30
f 31/31/31 32/32/32 30/30/30
f 33/33/33 35/35/35 34/34/34
f 35/35/35 36/36/36 34/34/34
f 37/37/37 39/39/39 38/38/38
f 39/39/39 40/40/40 38/38/38
f 41/41/41 43/43/43 42/42/42
f 43/43/43 44/44/44 42/42/42
f 45/45/45 47/47/47 46/46/46
f 47/47/47 48/48/48 46/46/46
#12 polygons

g screw_hole_2

#
# object screw_hole_2
#

v 0.478125 0.28125 0.484375
v 0.478125 0.28125 0.359375
v 0.478125 0.21875 0.484375
v 0.478125 0.21875 0.359375
v 0.4375 0.28125 0.359375
v 0.4375 0.28125 0.484375
v 0.4375 0.21875 0.359375
v 0.4375 0.21875 0.484375
v 0.4375 0.28125 0.359375
v 0.478125 0.28125 0.359375
v 0.4375 0.28125 0.484375
v 0.478125 0.28125 0.484375
v 0.4375 0.21875 0.484375
v 0.478125 0.21875 0.484375
v 0.4375 0.21875 0.359375
v 0.478125 0.21875 0.359375
v 0.4375 0.28125 0.484375
v 0.478125 0.28125 0.484375
v 0.4375 0.21875 0.484375
v 0.478125 0.21875 0.484375
v 0.478125 0.28125 0.359375
v 0.4375 0.28125 0.359375
v 0.478125 0.21875 0.359375
v 0.4375 0.21875 0.359375
# 24 vertices

vn 1 0 0
vn 1 0 0
vn 1 0 0
vn 1 0 0
vn -1 0 0
vn -1 0 0
vn -1 0 0
vn -1 0 0
vn 0 1 0
vn 0 1 0
vn 0 1 0
vn 0 1 0
vn 0 -1 0
vn 0 -1 0
vn 0 -1 0
vn 0 -1 0
vn 0 0 1
vn 0 0 1
vn 0 0 1
vn 0 0 1
vn 0 0 -1
vn 0 0 -1
vn 0 0 -1
vn 0 0 -1
# 24 vertex normals

vt 0 -1 0
vt 0.125 -1 0
vt 0 -0.9375 0
vt 0.125 -0.9375 0
vt 0 -1 0
vt 0.125 -1 0
vt 0 -0.9375 0
vt 0.125 -0.9375 0
vt 0 -1 0
vt 0.040625 -1 0
vt 0 -0.875 0
vt 0.040625 -0.875 0
vt 0 -1 0
vt 0.040625 -1 0
vt 0 -0.875 0
vt 0.040625 -0.875 0
vt 0 -1 0
vt 0.040625 -1 0
vt 0 -0.9375 0
vt 0.040625 -0.9375 0
vt 0 -1 0
vt 0.040625 -1 0
vt 0 -0.9375 0
vt 0.040625 -0.9375 0
# 24 texture coords

usemtl mat_12418836
s 4
f 49/49/49 51/51/51 50/50/50
f 51/51/51 52/52/52 50/50/50
f 53/53/53 55/55/55 54/54/54
f 55/55/55 56/56/56 54/54/54
f 57/57/57 59/59/59 58/58/58
f 59/59/59 60/60/60 58/58/58
f 61/61/61 63/63/63 62/62/62
f 63/63/63 64/64/64 62/62/62
f 65/65/65 67/67/67 66/66/66
f 67/67/67 68/68/68 66/66/66
f 69/69/69 71/71/71 70/70/70
f 71/71/71 72/72/72 70/70/70
#12 polygons

g breaker_mile_1

#
# object breaker_mile_1
#

v 0.446875 0.1625 0.53125
v 0.446875 0.1625 0.515625
v 0.446875 0.146875 0.53125
v 0.446875 0.146875 0.515625
v 0.4375 0.1625 0.515625
v 0.4375 0.1625 0.53125
v 0.4375 0.146875 0.515625
v 0.4375 0.146875 0.53125
v 0.4375 0.1625 0.515625
v 0.446875 0.1625 0.515625
v 0.4375 0.1625 0.53125
v 0.446875 0.1625 0.53125
v 0.4375 0.146875 0.53125
v 0.446875 0.146875 0.53125
v 0.4375 0.146875 0.515625
v 0.446875 0.146875 0.515625
v 0.4375 0.1625 0.53125
v 0.446875 0.1625 0.53125
v 0.4375 0.146875 0.53125
v 0.446875 0.146875 0.53125
v 0.446875 0.1625 0.515625
v 0.4375 0.1625 0.515625
v 0.446875 0.146875 0.515625
v 0.4375 0.146875 0.515625
# 24 vertices

vn 1 0 0
vn 1 0 0
vn 1 0 0
vn 1 0 0
vn -1 0 0
vn -1 0 0
vn -1 0 0
vn -1 0 0
vn 0 1 0
vn 0 1 0
vn 0 1 0
vn 0 1 0
vn 0 -1 0
vn 0 -1 0
vn 0 -1 0
vn 0 -1 0
vn 0 0 1
vn 0 0 1
vn 0 0 1
vn 0 0 1
vn 0 0 -1
vn 0 0 -1
vn 0 0 -1
vn 0 0 -1
# 24 vertex normals

vt 0 -1 0
vt 1 -1 0
vt 0 -0 0
vt 1 -0 0
vt 0 -1 0
vt 0.078125 -1 0
vt 0 -0.984375 0
vt 0.078125 -0.984375 0
vt 0 -1 0
vt 0.009375 -1 0
vt 0 -0.984375 0
vt 0.009375 -0.984375 0
vt 0 -1 0
vt 0.009375 -1 0
vt 0 -0.984375 0
vt 0.009375 -0.984375 0
vt 0 -1 0
vt 0.009375 -1 0
vt 0 -0.984375 0
vt 0.009375 -0.984375 0
vt 0 -1 0
vt 1 -1 0
vt 0 -0 0
vt 1 -0 0
# 24 texture coords

usemtl mat_28909442
s 8
f 77/77/77 79/79/79 78/78/78
f 79/79/79 80/80/80 78/78/78
f 81/81/81 83/83/83 82/82/82
f 83/83/83 84/84/84 82/82/82
f 85/85/85 87/87/87 86/86/86
f 87/87/87 88/88/88 86/86/86
f 89/89/89 91/91/91 90/90/90
f 91/91/91 92/92/92 90/90/90
#8 polygons

g breaker_mile_2

#
# object breaker_mile_2
#

v 0.478125 0.1625 0.53125
v 0.478125 0.1625 0.515625
v 0.478125 0.146875 0.53125
v 0.478125 0.146875 0.515625
v 0.46875 0.1625 0.515625
v 0.46875 0.1625 0.53125
v 0.46875 0.146875 0.515625
v 0.46875 0.146875 0.53125
v 0.46875 0.1625 0.515625
v 0.478125 0.1625 0.515625
v 0.46875 0.1625 0.53125
v 0.478125 0.1625 0.53125
v 0.46875 0.146875 0.53125
v 0.478125 0.146875 0.53125
v 0.46875 0.146875 0.515625
v 0.478125 0.146875 0.515625
v 0.46875 0.1625 0.53125
v 0.478125 0.1625 0.53125
v 0.46875 0.146875 0.53125
v 0.478125 0.146875 0.53125
v 0.478125 0.1625 0.515625
v 0.46875 0.1625 0.515625
v 0.478125 0.146875 0.515625
v 0.46875 0.146875 0.515625
# 24 vertices

vn 1 0 0
vn 1 0 0
vn 1 0 0
vn 1 0 0
vn -1 0 0
vn -1 0 0
vn -1 0 0
vn -1 0 0
vn 0 1 0
vn 0 1 0
vn 0 1 0
vn 0 1 0
vn 0 -1 0
vn 0 -1 0
vn 0 -1 0
vn 0 -1 0
vn 0 0 1
vn 0 0 1
vn 0 0 1
vn 0 0 1
vn 0 0 -1
vn 0 0 -1
vn 0 0 -1
vn 0 0 -1
# 24 vertex normals

vt 0 -1 0
vt 0.015625 -1 0
vt 0 -0.984375 0
vt 0.015625 -0.984375 0
vt 0 -1 0
vt 1 -1 0
vt 0 -0 0
vt 1 -0 0
vt 0 -1 0
vt 0.009375 -1 0
vt 0 -0.984375 0
vt 0.009375 -0.984375 0
vt 0 -1 0
vt 0.009375 -1 0
vt 0 -0.984375 0
vt 0.009375 -0.984375 0
vt 0 -1 0
vt 0.009375 -1 0
vt 0 -0.984375 0
vt 0.009375 -0.984375 0
vt 0 -1 0
vt 1 -1 0
vt 0 -0 0
vt 1 -0 0
# 24 texture coords

usemtl mat_15592610
s 16
f 97/97/97 99/99/99 98/98/98
f 99/99/99 100/100/100 98/98/98
f 105/105/105 107/107/107 106/106/106
f 107/107/107 108/108/108 106/106/106
f 109/109/109 111/111/111 110/110/110
f 111/111/111 112/112/112 110/110/110
f 113/113/113 115/115/115 114/114/114
f 115/115/115 116/116/116 114/114/114
#8 polygons

g screw_2

#
# object screw_2
#

v 0.4675 0.096875 0.5
v 0.4675 0.096875 0.484375
v 0.4675 0.08125 0.5
v 0.4675 0.08125 0.484375
v 0.44875 0.096875 0.484375
v 0.44875 0.096875 0.5
v 0.44875 0.08125 0.484375
v 0.44875 0.08125 0.5
v 0.44875 0.096875 0.484375
v 0.4675 0.096875 0.484375
v 0.44875 0.096875 0.5
v 0.4675 0.096875 0.5
v 0.44875 0.08125 0.5
v 0.4675 0.08125 0.5
v 0.44875 0.08125 0.484375
v 0.4675 0.08125 0.484375
v 0.44875 0.096875 0.5
v 0.4675 0.096875 0.5
v 0.44875 0.08125 0.5
v 0.4675 0.08125 0.5
v 0.4675 0.096875 0.484375
v 0.44875 0.096875 0.484375
v 0.4675 0.08125 0.484375
v 0.44875 0.08125 0.484375
# 24 vertices

vn 1 0 0
vn 1 0 0
vn 1 0 0
vn 1 0 0
vn -1 0 0
vn -1 0 0
vn -1 0 0
vn -1 0 0
vn 0 1 0
vn 0 1 0
vn 0 1 0
vn 0 1 0
vn 0 -1 0
vn 0 -1 0
vn 0 -1 0
vn 0 -1 0
vn 0 0 1
vn 0 0 1
vn 0 0 1
vn 0 0 1
vn 0 0 -1
vn 0 0 -1
vn 0 0 -1
vn 0 0 -1
# 24 vertex normals

vt 0 -1 0
vt 0.203125 -1 0
vt 0 -0.984375 0
vt 0.203125 -0.984375 0
vt 0 -1 0
vt 0.015625 -1 0
vt 0 -0.984375 0
vt 0.015625 -0.984375 0
vt 0 -1 0
vt 0.01875 -1 0
vt 0 -0.984375 0
vt 0.01875 -0.984375 0
vt 0 -1 0
vt 0.01875 -1 0
vt 0 -0.984375 0
vt 0.01875 -0.984375 0
vt 0 -1 0
vt 0.14375 -1 0
vt 0 -0.984375 0
vt 0.14375 -0.984375 0
vt 0 -1 0
vt 1 -1 0
vt 0 -0 0
vt 1 -0 0
# 24 texture coords

usemtl mat_26611356
s 32
f 121/121/121 123/123/123 122/122/122
f 123/123/123 124/124/124 122/122/122
f 125/125/125 127/127/127 126/126/126
f 127/127/127 128/128/128 126/126/126
f 129/129/129 131/131/131 130/130/130
f 131/131/131 132/132/132 130/130/130
f 133/133/133 135/135/135 134/134/134
f 135/135/135 136/136/136 134/134/134
f 137/137/137 139/139/139 138/138/138
f 139/139/139 140/140/140 138/138/138
#10 polygons

g screw_1

#
# object screw_1
#

v 0.4675 0.25625 0.5
v 0.4675 0.25625 0.484375
v 0.4675 0.240625 0.5
v 0.4675 0.240625 0.484375
v 0.44875 0.25625 0.484375
v 0.44875 0.25625 0.5
v 0.44875 0.240625 0.484375
v 0.44875 0.240625 0.5
v 0.44875 0.25625 0.484375
v 0.4675 0.25625 0.484375
v 0.44875 0.25625 0.5
v 0.4675 0.25625 0.5
v 0.44875 0.240625 0.5
v 0.4675 0.240625 0.5
v 0.44875 0.240625 0.484375
v 0.4675 0.240625 0.484375
v 0.44875 0.25625 0.5
v 0.4675 0.25625 0.5
v 0.44875 0.240625 0.5
v 0.4675 0.240625 0.5
v 0.4675 0.25625 0.484375
v 0.44875 0.25625 0.484375
v 0.4675 0.240625 0.484375
v 0.44875 0.240625 0.484375
# 24 vertices

vn 1 0 0
vn 1 0 0
vn 1 0 0
vn 1 0 0
vn -1 0 0
vn -1 0 0
vn -1 0 0
vn -1 0 0
vn 0 1 0
vn 0 1 0
vn 0 1 0
vn 0 1 0
vn 0 -1 0
vn 0 -1 0
vn 0 -1 0
vn 0 -1 0
vn 0 0 1
vn 0 0 1
vn 0 0 1
vn 0 0 1
vn 0 0 -1
vn 0 0 -1
vn 0 0 -1
vn 0 0 -1
# 24 vertex normals

vt 0 -1 0
vt 0.015625 -1 0
vt 0 -0.984375 0
vt 0.015625 -0.984375 0
vt 0 -1 0
vt 0.015625 -1 0
vt 0 -0.984375 0
vt 0.015625 -0.984375 0
vt 0 -1 0
vt 0.01875 -1 0
vt 0 -0.984375 0
vt 0.01875 -0.984375 0
vt 0 -1 0
vt 0.01875 -1 0
vt 0 -0.984375 0
vt 0.01875 -0.984375 0
vt 0 -1 0
vt 0.01875 -1 0
vt 0 -0.984375 0
vt 0.01875 -0.984375 0
vt 0 -1 0
vt 1 -1 0
vt 0 -0 0
vt 1 -0 0
# 24 texture coords

usemtl mat_57362765
s 64
f 145/145/145 147/147/147 146/146/146
f 147/147/147 148/148/148 146/146/146
f 149/149/149 151/151/151 150/150/150
f 151/151/151 152/152/152 150/150/150
f 153/153/153 155/155/155 154/154/154
f 155/155/155 156/156/156 154/154/154
f 157/157/157 159/159/159 158/158/158
f 159/159/159 160/160/160 158/158/158
f 161/161/161 163/163/163 162/162/162
f 163/163/163 164/164/164 162/162/162
#10 polygons

g handle_1

#
# object handle_1
#

v 0.46875 0.1625 0.53125
v 0.46875 0.1625 0.515625
v 0.46875 0.146875 0.53125
v 0.46875 0.146875 0.515625
v 0.446875 0.1625 0.515625
v 0.446875 0.1625 0.53125
v 0.446875 0.146875 0.515625
v 0.446875 0.146875 0.53125
v 0.446875 0.1625 0.515625
v 0.46875 0.1625 0.515625
v 0.446875 0.1625 0.53125
v 0.46875 0.1625 0.53125
v 0.446875 0.146875 0.53125
v 0.46875 0.146875 0.53125
v 0.446875 0.146875 0.515625
v 0.46875 0.146875 0.515625
v 0.446875 0.1625 0.53125
v 0.46875 0.1625 0.53125
v 0.446875 0.146875 0.53125
v 0.46875 0.146875 0.53125
v 0.46875 0.1625 0.515625
v 0.446875 0.1625 0.515625
v 0.46875 0.146875 0.515625
v 0.446875 0.146875 0.515625
# 24 vertices

vn 1 0 0
vn 1 0 0
vn 1 0 0
vn 1 0 0
vn -1 0 0
vn -1 0 0
vn -1 0 0
vn -1 0 0
vn 0 1 0
vn 0 1 0
vn 0 1 0
vn 0 1 0
vn 0 -1 0
vn 0 -1 0
vn 0 -1 0
vn 0 -1 0
vn 0 0 1
vn 0 0 1
vn 0 0 1
vn 0 0 1
vn 0 0 -1
vn 0 0 -1
vn 0 0 -1
vn 0 0 -1
# 24 vertex normals

vt 0 -1 0
vt 1 -1 0
vt 0 -0 0
vt 1 -0 0
vt 0 -1 0
vt 1 -1 0
vt 0 -0 0
vt 1 -0 0
vt 0 -1 0
vt 0.021875 -1 0
vt 0 -0.984375 0
vt 0.021875 -0.984375 0
vt 0 -1 0
vt 0.021875 -1 0
vt 0 -0.984375 0
vt 0.021875 -0.984375 0
vt 0 -1 0
vt 0.021875 -1 0
vt 0 -0.984375 0
vt 0.021875 -0.984375 0
vt 0 -1 0
vt 1 -1 0
vt 0 -0 0
vt 1 -0 0
# 24 texture coords

usemtl mat_50401437
s 128
f 177/177/177 179/179/179 178/178/178
f 179/179/179 180/180/180 178/178/178
f 181/181/181 183/183/183 182/182/182
f 183/183/183 184/184/184 182/182/182
f 185/185/185 187/187/187 186/186/186
f 187/187/187 188/188/188 186/186/186
#6 polygons

g handle_2

#
# object handle_2
#

v 0.478125 0.13760778 0.54419416
v 0.478125 0.14865632 0.5331456
v 0.478125 0.12876895 0.5353553
v 0.478125 0.13981749 0.5243068
v 0.4375 0.14865632 0.5331456
v 0.4375 0.13760778 0.54419416
v 0.4375 0.13981749 0.5243068
v 0.4375 0.12876895 0.5353553
v 0.4375 0.14865632 0.5331456
v 0.478125 0.14865632 0.5331456
v 0.4375 0.13760778 0.54419416
v 0.478125 0.13760778 0.54419416
v 0.4375 0.12876895 0.5353553
v 0.478125 0.12876895 0.5353553
v 0.4375 0.13981749 0.5243068
v 0.478125 0.13981749 0.5243068
v 0.4375 0.13760778 0.54419416
v 0.478125 0.13760778 0.54419416
v 0.4375 0.12876895 0.5353553
v 0.478125 0.12876895 0.5353553
v 0.478125 0.14865632 0.5331456
v 0.4375 0.14865632 0.5331456
v 0.478125 0.13981749 0.5243068
v 0.4375 0.13981749 0.5243068
# 24 vertices

vn 1 0 0
vn 1 0 0
vn 1 0 0
vn 1 0 0
vn -1 0 0
vn -1 0 0
vn -1 0 0
vn -1 0 0
vn 0 0.70710677 0.70710677
vn 0 0.70710677 0.70710677
vn 0 0.70710677 0.70710677
vn 0 0.70710677 0.70710677
vn 0 -0.70710677 -0.70710677
vn 0 -0.70710677 -0.70710677
vn 0 -0.70710677 -0.70710677
vn 0 -0.70710677 -0.70710677
vn 0 -0.70710677 0.70710677
vn 0 -0.70710677 0.70710677
vn 0 -0.70710677 0.70710677
vn 0 -0.70710677 0.70710677
vn 0 0.70710677 -0.70710677
vn 0 0.70710677 -0.70710677
vn 0 0.70710677 -0.70710677
vn 0 0.70710677 -0.70710677
# 24 vertex normals

vt 0 -1 0
vt 0.015625 -1 0
vt 0 -0.9875 0
vt 0.015625 -0.9875 0
vt 0 -1 0
vt 0.078125 -1 0
vt 0 -0.984375 0
vt 0.078125 -0.984375 0
vt 0 -1 0
vt 0.040625 -1 0
vt 0 -0.984375 0
vt 0.040625 -0.984375 0
vt 0 -1 0
vt 0.040625 -1 0
vt 0 -0.984375 0
vt 0.040625 -0.984375 0
vt 0 -1 0
vt 0.040625 -1 0
vt 0 -0.9875 0
vt 0.040625 -0.9875 0
vt 0 -1 0
vt 0.040625 -1 0
vt 0 -0.9875 0
vt 0.040625 -0.9875 0
# 24 texture coords

usemtl mat_14451418
s 256
f 193/193/193 195/195/195 194/194/194
f 195/195/195 196/196/196 194/194/194
f 197/197/197 199/199/199 198/198/198
f 199/199/199 200/200/200 198/198/198
f 201/201/201 203/203/203 202/202/202
f 203/203/203 204/204/204 202/202/202
f 205/205/205 207/207/207 206/206/206
f 207/207/207 208/208/208 206/206/206
f 209/209/209 211/211/211 210/210/210
f 211/211/211 212/212/212 210/210/210
f 213/213/213 215/215/215 214/214/214
f 215/215/215 216/216/216 214/214/214
#12 polygons

